# xmcd
#
# Track frame offsets: 
#        182
#        21712
#        31605
#        42540
#        56842
#        68692
#        77225
#        95965
#        106845
#        127602
#        139132
#        150965
#        163437
#        174847
#        184912
#        195720
#        207595
#        216037
#        229815
#        242202
#        251607
#        262310
#        274540
#
# Disc length: 3837 seconds
#
# Revision: 4
# Processed by: cddbd v1.5.2PL0 Copyright (c) Steve Scherf et al.
# Submitted via: ExactAudioCopyFreeDBPlugin 1.0
#
DISCID=540efb17
DTITLE=Various Artist - Rites of Rhythm and Blues:  Rhythm and Blues Foun
DTITLE=dation Pioneer Awards
DYEAR=1994
DGENRE=Rhythm and Blues
TTITLE0=Little Richard - I Don't Know What You Got But It's Got Me
TTITLE1=Fats Domino - I'm Walkin'
TTITLE2=Shirley and Lee - Let the Good Times Roll
TTITLE3=Bill Doggett - Honky Tonk - Pt. I
TTITLE4=Bill Doggett - Leaps and Bounds - Pt. I
TTITLE5=Jerry Lee Lewis - Great Balls of Fire
TTITLE6=Don Covay - I Was Checkin' Out She Was Checkin' In
TTITLE7=Don Covay - Mercy,Mercy
TTITLE8=Clarence  Carter - Strokin'
TTITLE9=Clarence  Carter - Slip Away
TTITLE10=Jerry Buttler - Only the Strong Survive
TTITLE11=The Impressions Featuring Jerry Buttler - For Your Precious L
TTITLE11=ove
TTITLE12=The Drifters - This Magic Moment
TTITLE13=The Drifters - There Goes My Baby
TTITLE14=The Viscounts - Harlem Nocturne
TTITLE15=The Johnny Otis Show - Willie and the Hand Jive
TTITLE16=The Coasters - Yakety Yak
TTITLE17=The Robins - Riot in Cell Block #9
TTITLE18=The Shirelles - Will You Love Me Tomorrow
TTITLE19=Irma Thomas - It's Raining
TTITLE20=Irma Thomas - Wish Someone Would Care
TTITLE21=Mabel John - Able Mabel
TTITLE22=Mabel John - Your Good Thing (Is About to End)
EXTD=
EXTT0=Little Richard\n
EXTT1=Fats Domino\n
EXTT2=Shirley and Lee\n
EXTT3=Bill Doggett\n
EXTT4=Bill Doggett\n
EXTT5=Jerry Lee Lewis\n
EXTT6=Don Covay\n
EXTT7=Don Covay\n
EXTT8=Clarence Carter\n
EXTT9=Clarence Carter\n
EXTT10=Jerry Butler\n
EXTT11=The Impressions Featuring Jerry Butler\n
EXTT12=The Drifters\n
EXTT13=The Drifters\n
EXTT14=The Viscounts\n
EXTT15=The Johnny Otis Show\n
EXTT16=The Coasters\n
EXTT17=The Robins\n
EXTT18=The Shirelles\n
EXTT19=Irma Thomas\n
EXTT20=Irma Thomas\n
EXTT21=Mabel John\n
EXTT22=Mabel John\n
PLAYORDER=
